<svg xmlns="http://www.w3.org/2000/svg" width="64" height="64" viewBox="0 0 64 64" role="img" aria-labelledby="title">
  <title id="title">Jira</title>
  <rect x="1" y="1" width="62" height="62" rx="14" fill="#F1F5F9" stroke="#94A3B8"/>
  <svg x="12" y="12" width="40" height="40" viewBox="0 0 128 128" fill="#0052CC"><defs xmlns="http://www.w3.org/2000/svg"><linearGradient id="jira-original-a" gradientUnits="userSpaceOnUse" x1="22.034" y1="9.773" x2="17.118" y2="14.842" gradientTransform="scale(4)"><stop offset=".176" stop-color="#0052cc" /><stop offset="1" stop-color="#2684ff" /></linearGradient><linearGradient id="jira-original-b" gradientUnits="userSpaceOnUse" x1="16.641" y1="15.564" x2="10.957" y2="21.094" gradientTransform="scale(4)"><stop offset=".176" stop-color="#0052cc" /><stop offset="1" stop-color="#2684ff" /></linearGradient></defs><path xmlns="http://www.w3.org/2000/svg" d="M108.023 16H61.805c0 11.52 9.324 20.848 20.847 20.848h8.5v8.226c0 11.52 9.328 20.848 20.848 20.848V19.977A3.98 3.98 0 00108.023 16zm0 0" fill="#2684ff" /><path xmlns="http://www.w3.org/2000/svg" d="M85.121 39.04H38.902c0 11.519 9.325 20.847 20.844 20.847h8.504v8.226c0 11.52 9.328 20.848 20.848 20.848V43.016a3.983 3.983 0 00-3.977-3.977zm0 0" fill="url(#jira-original-a)" /><path xmlns="http://www.w3.org/2000/svg" d="M62.219 62.078H16c0 11.524 9.324 20.848 20.848 20.848h8.5v8.23c0 11.52 9.328 20.844 20.847 20.844V66.059a3.984 3.984 0 00-3.976-3.98zm0 0" fill="url(#jira-original-b)" /></svg>
  <rect x="25" y="56" width="14" height="3" rx="1.5" fill="#0052CC"/>
</svg>
