<svg xmlns="http://www.w3.org/2000/svg" width="152" height="48" viewBox="0 0 152 48" role="img" aria-labelledby="title">
  <title id="title">LinkedIn</title>
  <defs>
    <linearGradient id="surface" x1="0" y1="0" x2="0" y2="1">
      <stop stop-color="#1679CE"/>
      <stop offset="1" stop-color="#095594"/>
    </linearGradient>
  </defs>
  <rect x="2" y="6" width="148" height="40" rx="12" fill="#062D50" opacity="0.28"/>
  <rect x="1" y="1" width="150" height="42" rx="12" fill="url(#surface)" stroke="#4799DB"/>
  <path d="M14 3h124" stroke="#FFFFFF" stroke-opacity="0.3" stroke-linecap="round"/>
  <rect x="15" y="12" width="21" height="21" rx="4" fill="#FFFFFF" fill-opacity="0.16"/>
  <g fill="#FFFFFF">
    <circle cx="21" cy="17" r="1.5"/>
    <path d="M19.7 20h2.6v9h-2.6zm5 0h2.5v1.2c.7-1 1.4-1.4 2.5-1.4 2.1 0 3.1 1.3 3.1 3.6V29h-2.6v-5.1c0-1.3-.4-1.9-1.4-1.9s-1.6.7-1.6 2V29h-2.5z"/>
  </g>
  <text x="48" y="28" font-family="sans-serif" font-size="16" font-weight="600" fill="#FFFFFF">LinkedIn</text>
  <path d="M126 18h7v7m-8 1 8-8" fill="none" stroke="#FFFFFF" stroke-width="1.8" stroke-linecap="round" stroke-linejoin="round"/>
</svg>
